<svg xmlns="http://www.w3.org/2000/svg" xmlns:xlink="http://www.w3.org/1999/xlink" viewBox="0 0 100 100"><defs><linearGradient id="a" x1="43" y1="18.5" x2="55.5" y2="31" gradientUnits="userSpaceOnUse"><stop offset="0" stop-color="#3487c7"/><stop offset="1" stop-color="#753ac4"/></linearGradient><linearGradient id="b" x1="65.4" y1="21.44" x2="77.73" y2="33.77" xlink:href="#a"/><linearGradient id="c" x1="56.44" y1="13.48" x2="64.43" y2="21.48" xlink:href="#a"/><linearGradient id="d" x1="36.14" y1="14.94" x2="41.35" y2="20.15" xlink:href="#a"/><linearGradient id="e" x1="24.34" y1="24.75" x2="30.55" y2="30.95" xlink:href="#a"/><linearGradient id="f" y1="43.5" x2="55.5" y2="56" xlink:href="#a"/><linearGradient id="g" x1="55.5" y1="56" x2="68" y2="68.5" xlink:href="#a"/><linearGradient id="h" x1="77.39" y1="34.11" x2="86.09" y2="42.81" xlink:href="#a"/><linearGradient id="i" x1="34.53" y1="78.18" x2="42.34" y2="85.98" xlink:href="#a"/><linearGradient id="j" x1="57.48" y1="79.02" x2="63.82" y2="85.36" xlink:href="#a"/><linearGradient id="k" x1="21.58" y1="66.04" x2="33.15" y2="77.6" xlink:href="#a"/><linearGradient id="l" x1="13.63" y1="56.88" x2="20.62" y2="63.86" xlink:href="#a"/><linearGradient id="m" x1="14.65" y1="36.87" x2="19.64" y2="41.86" xlink:href="#a"/><linearGradient id="n" x1="18" y1="43.5" x2="30.5" y2="56" xlink:href="#a"/><linearGradient id="o" x1="78.62" y1="57.88" x2="85.06" y2="64.32" xlink:href="#a"/><linearGradient id="p" x1="30.5" y1="56" x2="43" y2="68.5" xlink:href="#a"/><linearGradient id="q" x1="68" y1="68.5" x2="75.21" y2="75.71" xlink:href="#a"/><linearGradient id="r" x1="30.5" y1="31" x2="43" y2="43.5" xlink:href="#a"/><linearGradient id="s" y1="68.5" x2="55.5" y2="81" xlink:href="#a"/><linearGradient id="t" x1="55.5" y1="31" x2="68" y2="43.5" xlink:href="#a"/><linearGradient id="u" x1="68" y1="43.5" x2="80.5" y2="56" xlink:href="#a"/></defs><title>Artboard 1</title><rect x="43" y="18.5" width="12.5" height="12.5" style="fill:url(#a)"/><path d="M80.5,30.88a36,36,0,0,0-12.5-12V31H80.5Z" style="fill:url(#b)"/><path d="M67,18.24A36,36,0,0,0,55.5,14.42V18.5H67.41C67.25,18.41,67.11,18.32,67,18.24Z" style="fill:url(#c)"/><path d="M32.58,18.5H43V14.69A36.06,36.06,0,0,0,32.58,18.5Z" style="fill:url(#d)"/><path d="M19.43,31H30.5V19.74A35.77,35.77,0,0,0,19.43,31Z" style="fill:url(#e)"/><rect x="43" y="43.5" width="12.5" height="12.5" style="fill:url(#f)"/><rect x="55.5" y="56" width="12.5" height="12.5" style="fill:url(#g)"/><path d="M85.4,43.5A36.08,36.08,0,0,0,80.57,31H80.5V43.5Z" style="fill:url(#h)"/><path d="M33.05,81.76a36.31,36.31,0,0,0,10,3.56V81H31.71C32.15,81.26,32.59,81.52,33.05,81.76Z" style="fill:url(#i)"/><path d="M55.5,85.58A36.06,36.06,0,0,0,68,81.17V81H55.5Z" style="fill:url(#j)"/><path d="M30.5,80.25V68.5H19.11A35.76,35.76,0,0,0,30.5,80.25Z" style="fill:url(#k)"/><path d="M18,66.48V56H14.51A36.24,36.24,0,0,0,18,66.48Z" style="fill:url(#l)"/><path d="M14.59,43.5H18v-10A35.81,35.81,0,0,0,14.59,43.5Z" style="fill:url(#m)"/><rect x="18" y="43.5" width="12.5" height="12.5" style="fill:url(#n)"/><path d="M80.5,56V68.5h.38c.3-.51.6-1,.88-1.55A36.18,36.18,0,0,0,85.5,56Z" style="fill:url(#o)"/><rect x="30.5" y="56" width="12.5" height="12.5" style="fill:url(#p)"/><path d="M68,81h.31A35.78,35.78,0,0,0,80.5,69.11V68.5H68Z" style="fill:url(#q)"/><rect x="30.5" y="31" width="12.5" height="12.5" style="fill:url(#r)"/><rect x="43" y="68.5" width="12.5" height="12.5" style="fill:url(#s)"/><rect x="55.5" y="31" width="12.5" height="12.5" style="fill:url(#t)"/><rect x="68" y="43.5" width="12.5" height="12.5" style="fill:url(#u)"/><path d="M50,6A44,44,0,1,1,6,50,44.05,44.05,0,0,1,50,6m0-6a50,50,0,1,0,50,50A50,50,0,0,0,50,0Z" style="fill:#512888"/></svg>